<svg width="22" height="21" viewBox="0 0 22 21" fill="none" xmlns="http://www.w3.org/2000/svg">
<path fill-rule="evenodd" clip-rule="evenodd" d="M21.5631 9.5L15.2388 3.1325C11.7218 -0.377393 6.02723 -0.377393 2.51031 3.1325L2.50187 3.14094L1.21094 4.475C0.932762 4.77395 0.944869 5.2405 1.23817 5.52462C1.53148 5.80873 1.99818 5.80598 2.28813 5.51844L3.57531 4.18906C4.09318 3.6713 4.68415 3.23226 5.32937 2.88594L9.68875 7.25L0.68875 16.25C0.407371 16.5313 0.249289 16.9129 0.249289 17.3108C0.249289 17.7087 0.407371 18.0902 0.68875 18.3716L2.62844 20.3113C2.90975 20.5926 3.29133 20.7507 3.68922 20.7507C4.0871 20.7507 4.46869 20.5926 4.75 20.3113L13.75 11.3112L15.0944 12.6556L16.75 14.3094C17.0313 14.5908 17.4129 14.7488 17.8108 14.7488C18.2087 14.7488 18.5902 14.5908 18.8716 14.3094L21.5613 11.6197C22.1465 11.0346 22.1473 10.0861 21.5631 9.5ZM3.68875 19.25L1.75 17.3103L8.125 10.9353L10.0638 12.875L3.68875 19.25ZM13.2194 9.7175L11.125 11.8128L9.18531 9.875L11.2806 7.77969C11.4215 7.63901 11.5006 7.44812 11.5006 7.24906C11.5006 7.05001 11.4215 6.85911 11.2806 6.71844L6.8425 2.28125C9.45333 1.54594 12.2577 2.27761 14.1766 4.19469L18.3222 8.3675L15.625 11.0619L14.2806 9.7175C14.1399 9.57667 13.9491 9.49753 13.75 9.49753C13.5509 9.49753 13.3601 9.57667 13.2194 9.7175ZM17.8131 13.2481L16.6881 12.1231L19.375 9.42969L20.5 10.5547L17.8131 13.2481Z" fill="#0D171C"/>
</svg>
