<svg width="21" height="18" viewBox="0 0 21 18" fill="none" xmlns="http://www.w3.org/2000/svg">
<path fill-rule="evenodd" clip-rule="evenodd" d="M15.1875 0.00213623C13.2516 0.00213623 11.5566 0.834636 10.5 2.24182C9.44344 0.834636 7.74844 0.00213623 5.8125 0.00213623C2.60384 0.00575279 0.00361655 2.60598 0 5.81464C0 12.3771 9.73031 17.689 10.1447 17.9084C10.3665 18.0277 10.6335 18.0277 10.8553 17.9084C11.2697 17.689 21 12.3771 21 5.81464C20.9964 2.60598 18.3962 0.00575279 15.1875 0.00213623V0.00213623ZM10.5 16.3896C8.78813 15.3921 1.5 10.8481 1.5 5.81464C1.5031 3.43419 3.43206 1.50524 5.8125 1.50214C7.63594 1.50214 9.16687 2.47339 9.80625 4.03339C9.92182 4.31472 10.1959 4.49841 10.5 4.49841C10.8041 4.49841 11.0782 4.31472 11.1938 4.03339C11.8331 2.47057 13.3641 1.50214 15.1875 1.50214C17.5679 1.50524 19.4969 3.43419 19.5 5.81464C19.5 10.8406 12.21 15.3912 10.5 16.3896V16.3896Z" fill="#0D171C"/>
</svg>
