<svg width="24" height="19" viewBox="0 0 24 19" fill="none" xmlns="http://www.w3.org/2000/svg">
<path fill-rule="evenodd" clip-rule="evenodd" d="M18 8.375C18 8.99632 17.4963 9.5 16.875 9.5C16.2537 9.5 15.75 8.99632 15.75 8.375C15.75 7.75368 16.2537 7.25 16.875 7.25C17.4963 7.25 18 7.75368 18 8.375ZM14.25 3.5H10.5C10.0858 3.5 9.75 3.83579 9.75 4.25C9.75 4.66421 10.0858 5 10.5 5H14.25C14.6642 5 15 4.66421 15 4.25C15 3.83579 14.6642 3.5 14.25 3.5ZM23.25 8V11C23.25 12.2426 22.2426 13.25 21 13.25H20.7787L19.2591 17.5044C19.0459 18.1015 18.4803 18.5001 17.8463 18.5H16.6537C16.0197 18.5001 15.4541 18.1015 15.2409 17.5044L15.0609 17H9.68906L9.50906 17.5044C9.29587 18.1015 8.73028 18.5001 8.09625 18.5H6.90375C6.26972 18.5001 5.70413 18.1015 5.49094 17.5044L4.3125 14.2081C3.19142 12.9393 2.48945 11.3553 2.3025 9.6725C1.8092 9.9316 1.50017 10.4428 1.5 11C1.5 11.4142 1.16421 11.75 0.75 11.75C0.335786 11.75 0 11.4142 0 11C0.00235788 9.62383 0.940727 8.42575 2.27625 8.09375C2.62366 3.8081 6.20029 0.50546 10.5 0.5H20.25C20.6642 0.5 21 0.835786 21 1.25C21 1.66421 20.6642 2 20.25 2H18.2447C19.4894 2.87328 20.4683 4.07378 21.0731 5.46875C21.1134 5.5625 21.1528 5.65625 21.1903 5.75C22.3581 5.84912 23.2542 6.82804 23.25 8ZM21.75 8C21.75 7.58579 21.4142 7.25 21 7.25H20.6569C20.329 7.25035 20.039 7.03773 19.9406 6.725C19.0587 3.91055 16.4494 1.99632 13.5 2H10.5C7.82339 1.99986 5.39955 3.58127 4.32143 6.03115C3.24331 8.48103 3.71461 11.3365 5.52281 13.31C5.59048 13.3836 5.64276 13.47 5.67656 13.5641L6.90375 17H8.09625L8.45438 15.9978C8.56091 15.6994 8.84347 15.5002 9.16031 15.5H15.5897C15.9065 15.5002 16.1891 15.6994 16.2956 15.9978L16.6537 17H17.8463L19.5441 12.2478C19.6506 11.9494 19.9332 11.7502 20.25 11.75H21C21.4142 11.75 21.75 11.4142 21.75 11V8Z" fill="#0D171C"/>
</svg>
